<?xml version="1.0" standalone="no"?>
<!DOCTYPE svg PUBLIC "-//W3C//DTD SVG 20010904//EN"
 "http://www.w3.org/TR/2001/REC-SVG-20010904/DTD/svg10.dtd">
<svg version="1.0" xmlns="http://www.w3.org/2000/svg"
 width="300.000000pt" height="400.000000pt" viewBox="0 0 300.000000 400.000000"
 preserveAspectRatio="xMidYMid meet">
<metadata>
Created by potrace 1.10, written by Peter Selinger 2001-2011
</metadata>
<g transform="translate(0.000000,400.000000) scale(0.050000,-0.050000)"
fill="#f83f3f" stroke="none">
<path d="M950 7340 c-363 -6 625 -13 2195 -15 1893 -3 2855 2 2855 15 0 21
-3775 21 -5050 0z"/>
<path d="M4150 7021 c-206 -51 -281 -169 -270 -421 3 -60 4 -132 3 -160 -5
-131 38 -240 96 -240 129 0 53 -88 -178 -203 -265 -132 -301 -184 -301 -435
l0 -157 -265 -9 c-305 -9 -502 33 -677 145 -173 111 -280 127 -472 68 -114
-34 -167 -61 -175 -87 -29 -91 -244 -159 -512 -161 -38 -1 -88 -14 -110 -29
-37 -26 -62 -11 -330 193 -435 332 -439 333 -629 247 l-100 -45 170 -88 c184
-97 191 -108 207 -313 8 -114 126 -288 237 -353 139 -80 429 -193 497 -193
119 0 718 -190 919 -292 239 -120 561 -232 702 -243 l131 -10 179 113 178 114
6 -53 c4 -30 -8 -69 -27 -90 -45 -50 -15 -508 48 -739 22 -82 56 -225 75 -316
23 -109 47 -173 69 -184 62 -34 85 -179 67 -414 -25 -320 -10 -593 54 -1006
l57 -370 -114 -105 c-63 -58 -126 -105 -139 -105 -14 0 -43 -19 -65 -43 -93
-101 185 -141 323 -47 41 28 99 50 130 50 103 1 148 74 96 154 -41 62 -23 474
32 735 21 99 39 261 39 360 2 217 35 397 89 487 l40 66 240 -13 c544 -31 654
65 596 523 -35 274 -84 432 -202 648 -51 94 -90 183 -86 200 3 16 -12 66 -34
110 -74 149 -90 265 -46 327 38 53 38 53 -17 132 -91 130 -24 292 119 289 l70
-1 -58 -18 c-32 -9 -66 -13 -75 -7 -29 18 -17 -140 14 -181 16 -21 29 -65 29
-97 0 -33 41 -171 90 -307 57 -159 90 -282 90 -340 0 -85 94 -246 125 -215 6
5 6 -11 1 -36 -4 -25 82 -671 193 -1435 111 -764 201 -1392 201 -1395 0 -3 23
-6 50 -6 62 0 73 -143 -89 1103 -76 587 -152 1175 -168 1307 l-30 240 56 60
c54 57 57 69 52 218 l-5 158 -72 37 c-84 43 -69 -26 -167 727 -64 496 -70 579
-53 724 20 164 20 165 -112 704 -159 645 -171 666 -155 259 l13 -313 -50 -12
c-40 -10 -50 -25 -50 -75 0 -48 -7 -59 -33 -49 -17 7 -72 23 -121 35 l-89 23
8 122 c5 67 25 193 45 281 67 301 -104 516 -360 452z m174 -192 c17 -36 27
-43 39 -25 9 14 16 17 16 6 0 -68 -36 -68 -87 -1 -42 55 -47 71 -23 71 18 0
42 -23 55 -51z m-60 -23 c82 -79 68 -92 -33 -31 -48 29 -84 60 -78 69 17 29
54 17 111 -38z m-8 -72 l127 -79 -61 -63 c-54 -55 -58 -70 -44 -135 16 -68 11
-79 -56 -145 -125 -122 -142 -81 -30 71 40 55 68 103 63 108 -5 6 -44 -40 -86
-100 -83 -121 -95 -128 -145 -77 -32 32 -32 33 1 21 47 -18 44 3 -10 62 -25
27 -35 44 -22 36 51 -29 75 46 30 94 -24 25 -42 58 -41 74 1 21 4 22 11 4 6
-14 19 -20 29 -14 11 7 17 0 13 -14 -6 -30 101 -39 119 -10 7 10 -10 36 -36
57 l-48 39 54 -11 c29 -7 59 -4 65 6 14 23 -46 46 -74 29 -13 -8 -15 -4 -5 13
12 19 1 23 -46 16 -57 -8 -60 -6 -40 33 36 69 60 91 83 77 13 -7 80 -49 149
-92z m124 -220 c-1 -40 -34 -80 -56 -66 -34 21 -19 84 20 87 20 1 36 -8 36
-21z m-52 -186 c7 -17 12 -61 12 -98 0 -37 10 -70 22 -74 14 -5 11 -17 -9 -33
-48 -41 -127 123 -91 190 29 55 49 60 66 15z m-74 -272 c-57 -44 -59 -40 -42
87 l15 107 36 -80 c35 -79 35 -80 -9 -114z m534 -8 c47 -123 -27 -244 -193
-312 -69 -29 -219 -106 -335 -173 -255 -147 -274 -136 -136 80 59 92 128 203
154 247 85 150 -20 1 -184 -259 -112 -176 -166 -246 -170 -220 -4 22 -23 100
-44 174 l-37 135 219 122 c120 67 218 126 218 131 0 6 -76 -31 -168 -81 -204
-112 -210 -112 -130 -13 64 81 101 96 258 109 50 5 104 13 120 19 39 14 235
53 266 53 13 0 -51 -75 -142 -166 -91 -91 -158 -173 -150 -181 8 -8 1 -10 -15
-4 -19 8 -73 -32 -149 -109 -144 -145 -123 -160 28 -20 60 55 115 100 123 100
8 0 29 23 47 50 18 28 43 50 55 50 28 0 157 130 157 158 0 11 9 25 20 32 11 7
15 -3 8 -24 -10 -33 -9 -33 20 2 17 21 25 47 18 58 -7 11 -2 14 10 6 12 -7 39
4 58 26 45 48 59 50 74 10z m80 -16 c6 -26 -1 -78 -17 -115 l-29 -67 -1 115
c-1 117 25 154 47 67z m71 -237 c1 -26 -15 -35 -61 -35 -42 0 -59 8 -52 25 5
14 26 66 46 115 l37 90 14 -80 c8 -44 15 -96 16 -115z m-977 94 c-35 -39 -57
-81 -49 -93 7 -13 4 -17 -9 -9 -11 8 -27 5 -34 -7 -22 -36 -45 -21 -56 35 -15
77 51 145 142 145 l68 0 -62 -71z m-125 -234 c90 -306 104 -284 -248 -386
-164 -48 -350 -111 -413 -141 l-113 -54 -152 136 c-177 159 -179 167 -15 100
174 -71 475 -58 604 25 37 24 95 32 220 31 176 -2 171 3 -24 24 -114 13 -114
13 -94 66 12 30 20 56 19 59 -17 60 8 61 90 1 165 -121 184 -132 149 -87 -18
23 -20 33 -5 24 41 -25 30 -2 -73 156 l-99 151 43 49 c53 59 43 74 111 -154z
m819 40 c-27 -36 -88 -117 -135 -181 -106 -141 -112 -138 -57 31 42 128 104
185 233 213 4 1 -14 -27 -41 -63z m-824 -229 c-13 -14 -212 151 -212 176 0
104 51 91 136 -35 48 -72 82 -135 76 -141z m959 256 c-6 -10 -2 -22 9 -25 13
-5 2 -62 -27 -149 -27 -77 -54 -199 -62 -270 -18 -171 -28 -198 -67 -199 -58
-1 -106 -52 -132 -139 l-24 -83 -101 79 c-55 44 -101 96 -102 117 -2 52 52
167 79 167 13 0 17 5 11 12 -7 7 50 74 126 151 77 76 139 150 139 165 0 14 16
44 35 67 19 23 51 60 70 83 34 42 68 59 46 24z m175 -10 c18 -45 -7 -52 -63
-19 l-53 32 50 -48 c47 -44 55 -85 42 -197 -2 -16 -26 24 -53 89 -28 66 -45
131 -40 145 13 35 104 33 117 -2z m-4310 -112 c-4 -28 -14 -34 -34 -22 -19 12
-23 35 -13 75 17 66 59 19 47 -53z m3782 -65 c-21 -69 -34 -137 -28 -151 5
-14 1 -21 -10 -14 -11 7 -20 -2 -20 -19 0 -25 -15 -29 -75 -20 -41 6 -133 18
-203 25 l-129 14 249 144 c136 79 249 144 251 145 2 0 -14 -55 -35 -124z m460
-101 c1 -20 -24 -74 -55 -120 -63 -93 -108 -174 -97 -174 4 0 43 51 86 114
l78 114 10 -119 c6 -65 18 -131 27 -145 13 -21 -8 -25 -102 -22 l-119 4 11 72
c6 40 10 113 10 162 -1 54 4 75 12 52 10 -27 21 -4 39 80 15 65 32 127 38 137
12 21 60 -98 62 -155z m-2498 31 c50 -23 148 -74 218 -114 170 -96 176 -77 13
39 -72 51 -131 98 -131 103 0 12 88 -49 246 -169 64 -48 112 -93 106 -99 -6
-5 10 -27 34 -47 24 -20 -144 44 -374 142 -230 98 -423 185 -430 192 -28 30
236 -9 318 -47z m-1385 -97 c-11 -10 -286 58 -305 75 -13 12 -10 24 7 35 23
14 314 -94 298 -110z m1505 -137 c569 -180 527 -156 509 -299 -17 -141 31
-154 -492 141 -458 259 -590 338 -537 322 17 -5 251 -79 520 -164z m-1634 118
c64 -8 112 -18 106 -23 -17 -18 -312 19 -300 37 6 10 26 14 45 9 18 -5 85 -16
149 -23z m1220 -55 c63 -37 109 -72 102 -79 -13 -13 -288 116 -288 135 0 28
82 2 186 -56z m2074 29 c101 -12 85 -16 -200 -49 -170 -20 -341 -40 -380 -45
-38 -6 11 16 110 48 184 60 277 69 470 46z m-3064 -35 c109 -14 87 -50 -57
-98 -54 -18 -116 -55 -137 -82 -51 -65 -65 -61 -115 32 l-43 79 63 11 c35 6
113 19 173 28 135 21 35 24 -129 4 -102 -13 -123 -10 -157 24 -39 39 96 40
402 2z m792 9 c-10 -16 -4 -20 20 -11 23 9 29 6 20 -10 -10 -15 -4 -19 19 -10
18 7 33 5 33 -4 0 -10 225 -120 500 -245 459 -208 499 -231 499 -277 0 -105
-24 -96 -469 165 -575 337 -650 380 -650 370 0 -5 79 -57 175 -115 96 -59 180
-113 185 -120 6 -7 26 -19 45 -26 19 -7 35 -22 35 -32 0 -19 -139 36 -301 119
-86 43 -107 48 -90 20 6 -10 1 -25 -12 -33 -13 -8 -18 -6 -11 5 19 31 -10 59
-116 112 l-100 51 80 13 c44 7 94 21 110 31 41 24 45 24 28 -3z m2132 -307
c-171 -171 -321 -306 -335 -301 -73 28 -583 360 -570 371 8 8 180 44 381 81
239 44 354 73 330 83 -22 9 -9 11 34 6 39 -6 151 7 250 28 99 20 189 38 200
40 11 1 -120 -138 -290 -308z m-2359 177 c184 -87 244 -107 265 -90 25 21 958
-398 1023 -459 74 -69 -67 -12 -439 180 -237 123 -442 217 -454 210 -14 -9
-17 -5 -6 12 12 20 7 23 -18 14 -23 -9 -29 -6 -20 10 10 15 3 19 -20 10 -20
-8 -29 -6 -22 6 7 11 3 20 -8 20 -81 0 7 -57 308 -201 192 -91 347 -169 343
-173 -18 -18 -1273 532 -1273 558 0 38 97 9 321 -97z m1789 -8 c-199 -40 -243
-46 -223 -26 17 18 265 63 343 63 33 -1 -21 -17 -120 -37z m-2076 -77 c275
-121 398 -180 376 -182 -11 -1 -4 -10 15 -22 19 -11 44 -15 55 -8 11 7 20 7
20 1 0 -36 -105 -49 -166 -20 -63 29 -52 29 46 -1 28 -8 45 -9 38 -2 -6 7
-158 66 -338 132 -369 135 -363 132 -298 158 68 28 59 30 252 -56z m36 65 c27
-10 28 -16 7 -29 -22 -14 -21 -17 4 -18 17 0 40 8 50 19 12 11 34 7 59 -12 38
-28 37 -29 -20 -16 -33 8 -55 9 -49 3 9 -11 1452 -534 1472 -534 16 0 6 -118
-11 -129 -10 -6 -231 84 -490 200 -260 116 -482 205 -495 197 -13 -8 -18 -5
-10 7 16 26 -97 74 -129 54 -14 -9 -19 -7 -12 5 8 12 -80 62 -206 118 -144 64
-210 103 -194 114 15 11 8 14 -21 8 -25 -6 -40 -2 -34 8 13 21 34 23 79 5z
m2748 -384 c-43 -128 -74 -245 -69 -259 6 -14 3 -22 -5 -16 -9 5 -74 -175
-144 -400 -119 -378 -130 -405 -155 -363 -22 36 -25 37 -14 5 33 -97 33 -122
-1 -70 -34 52 -34 26 -1 -70 13 -38 13 -38 -15 -4 -38 46 -67 -44 -34 -105 11
-22 13 -43 2 -50 -10 -6 -29 -58 -43 -116 -13 -58 -32 -118 -43 -135 -14 -23
-16 -21 -8 10 32 127 33 162 4 90 -29 -70 -45 -41 -33 60 6 52 348 1100 356
1092 4 -5 -11 -74 -35 -155 -23 -81 -47 -163 -53 -182 -5 -19 -1 -35 10 -35
11 0 26 29 34 65 8 36 67 266 131 512 65 245 118 452 118 460 0 7 17 -13 38
-44 l38 -58 -78 -232z m-2907 237 c109 -45 210 -76 224 -71 17 7 22 2 13 -13
-10 -15 -3 -19 20 -10 20 8 29 6 22 -6 -14 -23 -117 -9 -178 25 -23 13 -49 22
-57 19 -8 -2 -15 5 -15 16 0 11 -7 19 -15 17 -33 -6 -145 29 -145 45 0 9 -12
12 -27 6 -15 -6 -33 4 -40 21 -15 40 -31 44 198 -49z m2818 -124 c-38 -112
-64 -223 -58 -245 10 -34 8 -36 -11 -11 -19 24 -22 18 -14 -30 5 -33 1 -78 -9
-100 -13 -30 -15 -26 -6 20 26 130 -15 19 -162 -431 -142 -437 -205 -593 -179
-448 5 32 41 244 80 469 38 226 80 469 93 540 19 112 263 436 331 440 2 0 -28
-92 -65 -204z m-664 -46 c140 -87 255 -164 255 -173 0 -34 -230 -180 -236
-149 -16 76 -186 37 -300 -69 l-44 -41 0 56 c0 31 -6 177 -13 325 l-13 270 48
-31 c26 -17 163 -102 303 -188z m1535 171 c0 -17 6 -51 13 -76 11 -42 7 -44
-56 -32 -98 19 -126 45 -82 81 32 26 31 27 -15 16 -38 -10 -43 -8 -20 8 17 12
47 16 68 9 20 -6 32 -3 26 7 -6 9 6 17 27 17 22 0 39 -13 39 -30z m-3582 -132
c44 -44 -295 62 -358 112 -38 30 -4 23 150 -32 109 -40 203 -76 208 -80z
m3025 -319 l117 -340 -108 119 -108 120 -20 220 -20 221 8 -240 c5 -132 22
-487 39 -788 16 -301 25 -553 19 -558 -5 -6 -10 -2 -10 8 0 11 -26 21 -58 24
-59 4 -122 -59 -122 -124 0 -47 -140 -125 -162 -90 -14 22 -17 21 -18 -7 0
-28 -18 -35 -87 -35 l-87 0 192 758 c106 417 195 756 198 752 4 -3 -8 -90 -27
-193 -19 -103 -37 -218 -42 -257 -11 -99 -16 -127 -30 -150 -6 -11 -9 -49 -6
-85 3 -36 -1 -61 -9 -56 -15 9 -27 -76 -28 -203 -1 -35 -8 -60 -15 -55 -28 17
-40 -56 -14 -87 15 -19 16 -26 2 -18 -30 18 -46 -92 -21 -138 13 -24 12 -29
-3 -20 -15 9 -22 -2 -21 -32 2 -54 33 -158 36 -121 1 13 37 261 80 550 43 289
98 669 122 845 48 350 58 399 75 350 6 -16 64 -183 128 -370z m-1334 100 l14
-260 -64 -24 c-63 -24 -64 -24 -53 30 6 30 26 160 46 289 19 129 37 233 39
230 2 -3 10 -122 18 -265z m1424 175 c42 -37 65 -62 51 -55 -15 8 -9 -14 14
-51 37 -61 22 -133 -23 -106 -24 15 -18 -10 17 -69 l33 -54 -40 48 -40 49 -15
-46 -14 -47 -36 58 c-20 32 -41 81 -49 108 -11 45 -9 44 23 -10 39 -64 100
-95 79 -40 -7 19 -4 27 7 20 11 -7 20 -2 20 10 0 12 11 16 25 8 14 -8 9 3 -10
25 -19 22 -35 51 -35 64 0 12 -10 23 -22 23 -12 0 -17 14 -10 31 6 17 4 26 -5
21 -10 -6 -37 10 -60 35 -70 74 1 57 90 -22z m488 -85 l-14 -90 -24 58 c-20
48 -19 64 10 95 43 48 45 45 28 -63z m73 -85 c-4 -36 -8 -6 -8 65 0 72 4 101
8 65 5 -36 5 -94 0 -130z m-2654 -59 c580 -220 547 -206 537 -232 -4 -10 -83
12 -177 50 -455 183 -913 373 -940 390 -42 27 -27 21 580 -208z m1399 91 c-11
-30 -16 -66 -10 -81 7 -18 2 -23 -12 -14 -16 10 -19 0 -11 -33 10 -40 -107
-790 -138 -878 -7 -20 -22 -8 -50 37 l-40 66 104 333 c118 379 152 534 52 233
-47 -141 -71 -188 -79 -160 -7 22 -9 4 -4 -40 4 -44 2 -62 -5 -40 -8 28 -25
-8 -57 -120 -25 -88 -46 -138 -47 -111 -3 79 104 430 119 389 9 -28 15 -21 25
28 7 35 8 77 1 94 -6 16 -3 30 8 30 10 0 30 52 44 115 14 63 44 135 67 160 53
58 57 57 33 -8z m728 -617 c68 -131 125 -244 128 -250 3 -7 -64 -49 -150 -95
l-156 -83 5 214 c3 118 -3 246 -12 284 -10 39 -24 114 -30 169 l-12 98 52 -48
c28 -27 107 -157 175 -289z m-597 -312 c-175 -699 -169 -678 -191 -678 -50 0
-13 206 100 559 65 204 139 436 164 516 85 274 58 129 -73 -397z m881 207 c85
-169 151 -310 146 -315 -5 -4 -83 142 -175 326 -91 184 -157 325 -146 314 11
-11 90 -157 175 -325z m-213 222 c-1 -7 11 -20 25 -29 20 -13 15 -17 -16 -18
-45 0 -73 61 -52 115 11 29 46 -27 43 -68z m550 1 c19 -51 14 -68 -18 -55 -16
6 -30 28 -30 49 0 46 31 50 48 6z m-509 -141 c42 -72 43 -103 2 -78 -12 8 -16
22 -10 32 6 11 3 19 -7 19 -11 0 -24 23 -29 50 -13 66 -7 63 44 -23z m90 -198
c17 -18 31 -45 31 -60 0 -16 9 -29 20 -29 18 0 58 -78 89 -178 13 -40 9 -44
-40 -39 -50 6 -182 277 -135 277 6 0 0 14 -14 30 -34 41 8 39 49 -1z m-42
-136 c56 -133 58 -153 19 -153 -71 1 -134 69 -107 117 12 24 17 54 9 67 -9 13
-5 17 9 8 13 -8 23 -5 23 7 0 40 19 21 47 -46z m-107 -150 l169 -35 -158 -85
c-157 -84 -184 -86 -200 -12 -43 199 -64 184 189 132z m289 -512 c-89 -66
-290 -14 -229 59 11 13 14 30 6 37 -7 7 -3 13 8 13 11 0 26 29 31 65 6 36 26
118 45 183 l35 118 71 -223 c70 -218 71 -224 33 -252z m29 434 c-15 -19 -28
-37 -29 -40 -1 -3 -19 13 -39 35 -36 39 -35 40 29 40 60 0 63 -3 39 -35z
m-269 -115 c-49 -64 -89 -90 -89 -56 0 12 121 123 136 125 3 1 -18 -30 -47
-69z m-131 -98 c19 -22 9 -30 -52 -41 -42 -8 -98 -35 -126 -61 -73 -68 -160
-87 -160 -34 0 89 283 203 338 136z m130 -291 c-5 -4 -44 26 -86 67 -73 71
-76 78 -45 110 31 32 36 28 86 -67 29 -55 49 -105 45 -110z m-117 57 l59 -62
-70 14 c-87 18 -87 18 -70 68 16 52 12 54 81 -20z m-416 -13 c61 -88 65 -98
34 -98 -16 0 -24 4 -19 10 6 6 -18 40 -54 77 -46 48 -55 66 -31 66 18 0 49
-25 70 -55z m-54 -26 c75 -67 68 -68 -46 -10 -75 38 -98 71 -49 71 14 0 57
-28 95 -61z m-212 20 c-8 -13 1 -19 23 -15 39 7 63 -50 66 -159 2 -57 -4 -65
-48 -65 -55 0 -64 114 -13 165 13 13 23 32 23 43 0 11 -11 9 -24 -4 -34 -34
-47 -30 -51 16 -1 22 6 40 17 40 11 0 14 -10 7 -21z m342 -1 c8 -12 35 -18 60
-13 39 8 44 3 29 -23 -50 -86 -53 -87 -96 -14 -37 62 -30 110 7 50z m-144 -70
c122 -68 125 -78 41 -117 -84 -41 -128 -29 -128 33 0 25 -6 66 -13 91 -15 56
-12 56 100 -7z m15 -207 c-34 -25 -40 -38 -21 -45 20 -6 18 -12 -8 -22 -21 -8
-30 -6 -23 6 20 32 -23 23 -50 -10 -37 -44 -46 -24 -17 38 14 32 48 59 85 69
81 22 93 9 34 -36z m-153 -42 c-24 -48 -37 -57 -58 -40 -42 35 -14 101 42 101
47 0 47 -1 16 -61z m123 -91 c-7 -17 -12 -46 -12 -64 0 -25 -5 -27 -24 -8 -45
45 -63 24 -19 -22 23 -26 43 -64 43 -85 -1 -31 -10 -25 -41 25 -58 90 -68 161
-24 172 71 19 89 14 77 -18z m-152 -160 c0 -64 62 -141 97 -120 11 7 15 -5 9
-28 -11 -41 -18 -40 -111 25 -54 37 -81 182 -41 222 21 21 45 -31 46 -99z m29
-173 c82 -54 107 -146 44 -163 -63 -16 -106 38 -127 163 -9 56 -2 56 83 0z
m38 -225 c14 -37 -6 -147 -29 -161 -9 -6 -11 -25 -4 -43 9 -22 5 -28 -11 -18
-14 9 -19 32 -13 51 6 21 0 41 -17 47 -50 19 -54 115 -6 134 61 25 67 24 80
-10z"/>
<path d="M306 667 c21 -21 5694 -28 5694 -6 0 12 -1028 19 -2853 19 -1570 0
-2848 -6 -2841 -13z"/>
</g>
</svg>
